<?xml version="1.0" standalone="no"?>
<!DOCTYPE svg PUBLIC "-//W3C//DTD SVG 20010904//EN"
 "http://www.w3.org/TR/2001/REC-SVG-20010904/DTD/svg10.dtd">
<svg version="1.0" xmlns="http://www.w3.org/2000/svg"
 width="180.000000pt" height="180.000000pt" viewBox="0 0 180.000000 180.000000"
 preserveAspectRatio="xMidYMid meet">

<g transform="translate(0.000000,180.000000) scale(0.100000,-0.100000)"
fill="#000000" stroke="none">
<path d="M830 1791 c-97 -32 -190 -113 -250 -219 l-35 -61 -75 -1 c-85 0 -169
-19 -233 -52 -24 -12 -62 -22 -89 -22 -40 -1 -53 -6 -80 -34 -28 -28 -33 -39
-33 -81 0 -37 6 -55 22 -73 14 -15 24 -42 29 -78 8 -64 42 -161 79 -223 l25
-44 -40 -80 c-27 -52 -47 -111 -57 -164 -10 -54 -24 -92 -37 -107 -15 -17 -21
-37 -21 -73 0 -42 5 -53 33 -81 27 -28 40 -33 80 -34 26 0 65 -10 87 -21 68
-35 145 -53 229 -53 l81 -1 35 -61 c45 -79 132 -167 195 -197 136 -64 281 -20
391 117 25 31 55 76 67 100 l21 42 81 0 c85 0 162 18 230 53 22 11 61 21 87
21 40 1 53 6 80 34 28 28 33 39 33 81 0 34 -6 55 -20 71 -11 12 -26 56 -36
107 -11 53 -33 116 -58 166 l-41 80 25 44 c37 62 71 159 80 223 5 35 16 65 31
83 37 44 33 98 -10 145 -30 32 -40 37 -83 38 -28 0 -65 10 -90 22 -64 33 -148
52 -233 52 l-75 1 -35 61 c-75 133 -191 218 -305 224 -33 2 -71 0 -85 -5z
m157 -70 c55 -26 128 -93 170 -159 19 -30 33 -55 31 -56 -1 -1 -33 -8 -69 -14
-37 -7 -101 -23 -143 -37 l-76 -25 -73 24 c-39 14 -103 30 -142 37 -38 7 -72
14 -73 15 -9 6 70 114 112 152 87 80 177 101 263 63z m-494 -340 c-12 -38 -30
-101 -38 -139 -14 -70 -15 -71 -121 -177 -98 -98 -107 -105 -120 -88 -22 29
-55 124 -61 175 -5 45 -4 48 17 48 13 0 39 17 62 40 43 43 42 35 26 145 -4 28
103 64 193 65 l65 0 -23 -69z m172 54 c22 -4 64 -14 94 -22 l53 -15 -80 -43
c-45 -24 -113 -64 -152 -90 -52 -33 -70 -41 -66 -28 2 10 10 38 16 63 7 24 21
69 32 98 17 46 23 53 42 49 11 -3 39 -9 61 -12z m573 -38 c11 -29 25 -73 32
-97 6 -25 14 -53 16 -63 4 -13 -14 -5 -66 28 -39 26 -107 66 -152 90 l-81 43
40 11 c48 13 163 39 180 40 6 1 20 -23 31 -52z m242 30 c54 -18 64 -25 61 -42
-1 -11 -4 -42 -5 -68 -1 -44 2 -52 36 -83 21 -19 47 -34 59 -34 20 0 21 -4 17
-47 -6 -51 -39 -146 -62 -176 -13 -17 -22 -10 -119 87 l-104 104 -23 94 c-12
51 -30 114 -40 141 l-18 47 66 0 c42 -1 91 -9 132 -23z m-1290 -67 c11 -11 20
-29 20 -40 0 -26 -34 -60 -60 -60 -26 0 -60 34 -60 60 0 26 34 60 60 60 11 0
29 -9 40 -20z m1500 0 c11 -11 20 -29 20 -40 0 -11 -9 -29 -20 -40 -11 -11
-29 -20 -40 -20 -11 0 -29 9 -40 20 -11 11 -20 29 -20 40 0 11 9 29 20 40 11
11 29 20 40 20 11 0 29 -9 40 -20z m-672 -49 c143 -72 280 -166 289 -199 10
-35 10 -389 1 -423 -14 -48 -344 -249 -408 -249 -31 0 -214 95 -313 162 -60
42 -89 69 -95 87 -9 34 -9 388 0 422 5 17 34 44 85 80 96 66 290 168 321 169
12 0 66 -22 120 -49z m-593 -410 l0 -170 -24 22 c-33 31 -103 106 -119 128
-11 16 -11 23 3 42 12 17 135 147 139 147 1 0 1 -76 1 -169z m1039 80 c71 -75
71 -77 43 -114 -29 -37 -95 -107 -117 -124 -13 -10 -15 9 -15 157 l0 169 24
-22 c13 -12 42 -42 65 -66z m-1129 -247 c105 -105 106 -106 120 -176 8 -38 26
-101 38 -139 l23 -69 -65 0 c-90 1 -197 37 -193 65 16 110 17 102 -26 145 -22
22 -49 40 -61 40 -24 0 -28 30 -10 95 10 38 58 145 65 145 1 0 50 -48 109
-106z m1258 76 c27 -45 57 -139 57 -177 0 -26 -4 -33 -20 -33 -11 0 -37 -15
-57 -34 -32 -29 -37 -40 -38 -77 0 -24 4 -54 8 -66 6 -17 3 -24 -15 -34 -40
-22 -122 -39 -185 -39 l-61 0 18 48 c10 26 28 89 40 140 l23 94 101 103 c55
56 103 103 106 104 3 1 14 -12 23 -29z m-309 -257 c-11 -48 -54 -177 -62 -191
-9 -13 -81 -4 -181 25 l-53 15 93 50 c52 28 119 68 149 89 30 21 56 38 58 38
1 1 -1 -11 -4 -26z m-695 -25 c36 -23 101 -61 145 -84 l78 -42 -53 -15 c-41
-12 -160 -37 -175 -37 -1 0 -9 18 -18 40 -22 56 -56 180 -49 180 3 0 36 -19
72 -42z m-399 -8 c11 -11 20 -29 20 -40 0 -26 -34 -60 -60 -60 -26 0 -60 34
-60 60 0 26 34 60 60 60 11 0 29 -9 40 -20z m1500 0 c11 -11 20 -29 20 -40 0
-26 -34 -60 -60 -60 -11 0 -29 9 -40 20 -11 11 -20 29 -20 40 0 11 9 29 20 40
11 11 29 20 40 20 11 0 29 -9 40 -20z m-684 -185 c45 -13 99 -27 120 -30 67
-11 67 -11 38 -57 -41 -67 -114 -138 -169 -164 -94 -45 -182 -25 -275 62 -59
55 -117 143 -98 148 7 2 49 12 93 21 44 10 102 26 130 36 27 10 57 15 65 13 8
-3 52 -16 96 -29z"/>
<path d="M735 1102 c-19 -12 -167 -382 -161 -398 13 -33 47 -11 71 46 l23 55
82 0 82 0 23 -55 c19 -44 28 -55 46 -55 14 0 25 7 27 16 4 23 -154 394 -170
396 -7 2 -18 0 -23 -5z m44 -168 c11 -31 21 -58 21 -60 0 -2 -22 -4 -50 -4
-27 0 -50 3 -50 7 0 15 44 113 50 113 4 0 17 -25 29 -56z"/>
<path d="M972 1101 c-8 -4 -12 -17 -10 -27 2 -14 13 -20 46 -22 l42 -3 0 -149
0 -149 -42 -3 c-38 -3 -43 -6 -43 -28 l0 -25 115 0 115 0 0 25 c0 22 -5 25
-42 28 l-43 3 0 149 0 149 43 3 c37 3 42 6 42 28 0 25 0 25 -105 28 -58 1
-111 -2 -118 -7z"/>
</g>
</svg>
